# MagicaVoxel @ Ephtracy

# group
o 

# material
mtllib 2431.mtl
usemtl palette

# normals
vn -1 0 0
vn 1 0 0
vn 0 0 1
vn 0 0 -1
vn 0 -1 0
vn 0 1 0

# texcoords
vt 0.912109 0.5
vt 0.955078 0.5

# verts
v -12.8 0 12.8
v -12.8 0 -12.8
v -12.8 0.1 12.8
v -12.8 0.1 -12.4
v -12.8 25.6 -12.4
v -12.8 25.6 -12.8
v 12.8 0 12.8
v 12.8 0 -12.8
v 12.8 0.1 12.8
v 12.8 0.1 -12.4
v 12.8 25.6 -12.4
v 12.8 25.6 -12.8
v -12.8 0 12.8
v -12.8 0.1 12.8
v 12.8 0 12.8
v 12.8 0.1 12.8
v -12.8 0.1 -12.4
v -12.8 25.6 -12.4
v -11.8 3.4 -12.4
v -11.8 3.5 -12.4
v -11.6 3.4 -12.4
v -11.6 3.5 -12.4
v -11.6 18.9 -12.4
v -11.6 19 -12.4
v -11.5 18.9 -12.4
v -11.5 19 -12.4
v -8.2 20.2 -12.4
v -8.2 20.3 -12.4
v -8 20.2 -12.4
v -8 20.3 -12.4
v -7.1 22.9 -12.4
v -7.1 23 -12.4
v -7 22.9 -12.4
v -7 23 -12.4
v -6.4 2.1 -12.4
v -6.4 2.2 -12.4
v -6.3 2.1 -12.4
v -6.3 2.2 -12.4
v -5.1 14 -12.4
v -5.1 14.1 -12.4
v -5 14 -12.4
v -5 14.1 -12.4
v -4.9 10.3 -12.4
v -4.9 10.4 -12.4
v -4.7 10.3 -12.4
v -4.7 10.4 -12.4
v -2.5 18.9 -12.4
v -2.5 19 -12.4
v -2.4 18.9 -12.4
v -2.4 19 -12.4
v -1.8 8.9 -12.4
v -1.8 9 -12.4
v -1.7 8.9 -12.4
v -1.7 9 -12.4
v -1.1 2.7 -12.4
v -1.1 2.8 -12.4
v -1 2.7 -12.4
v -1 2.8 -12.4
v -0.900001 13.6 -12.4
v -0.900001 13.7 -12.4
v -0.8 13.6 -12.4
v -0.8 13.7 -12.4
v -0.700001 16.6 -12.4
v -0.700001 16.7 -12.4
v -0.6 16.6 -12.4
v -0.6 16.7 -12.4
v -0.1 22.3 -12.4
v -0.1 22.4 -12.4
v 0 22.3 -12.4
v 0 22.4 -12.4
v 0.799999 7.3 -12.4
v 0.799999 7.4 -12.4
v 1 7.3 -12.4
v 1 7.4 -12.4
v 2 6.9 -12.4
v 2 7 -12.4
v 2.1 6.9 -12.4
v 2.1 7 -12.4
v 2.2 20.2 -12.4
v 2.2 20.3 -12.4
v 2.3 20.2 -12.4
v 2.3 20.3 -12.4
v 3.4 24.7 -12.4
v 3.4 24.8 -12.4
v 3.5 24.7 -12.4
v 3.5 24.8 -12.4
v 3.7 10.9 -12.4
v 3.7 11 -12.4
v 3.8 10.9 -12.4
v 3.8 11 -12.4
v 4.1 7.4 -12.4
v 4.1 7.6 -12.4
v 4.1 13.2 -12.4
v 4.1 13.3 -12.4
v 4.2 7.4 -12.4
v 4.2 7.6 -12.4
v 4.2 13.2 -12.4
v 4.2 13.3 -12.4
v 4.5 2.2 -12.4
v 4.5 2.3 -12.4
v 4.6 2.2 -12.4
v 4.6 2.3 -12.4
v 7.3 24.2 -12.4
v 7.3 24.3 -12.4
v 7.4 24.2 -12.4
v 7.4 24.3 -12.4
v 7.6 21.9 -12.4
v 7.6 22 -12.4
v 7.7 21.9 -12.4
v 7.7 22 -12.4
v 9.8 3 -12.4
v 9.8 3.2 -12.4
v 9.9 3 -12.4
v 9.9 3.2 -12.4
v 10.3 21.1 -12.4
v 10.3 21.2 -12.4
v 10.4 21.1 -12.4
v 10.4 21.2 -12.4
v 10.5 23.3 -12.4
v 10.5 23.4 -12.4
v 10.6 23.3 -12.4
v 10.6 23.4 -12.4
v 12.8 0.1 -12.4
v 12.8 25.6 -12.4
v -12.8 0 -12.8
v -12.8 25.6 -12.8
v 12.8 0 -12.8
v 12.8 25.6 -12.8
v -12.8 0 12.8
v 12.8 0 12.8
v 12.2 0 12.4
v 12.3 0 12.4
v -12.5 0 12.3
v -12.4 0 12.3
v 12.2 0 12.3
v 12.3 0 12.3
v -12.5 0 12.2
v -12.4 0 12.2
v 4.5 0 11.2
v 4.6 0 11.2
v 4.5 0 11
v 4.6 0 11
v 10.9 0 10
v 11.1 0 10
v 10.9 0 9.9
v 11.1 0 9.9
v -1.2 0 8.5
v -1.1 0 8.5
v -1.2 0 8.4
v -1.1 0 8.4
v 4.8 0 8
v 5 0 8
v 4.8 0 7.9
v 5 0 7.9
v -7.5 0 7.2
v -7.4 0 7.2
v -7.5 0 7.1
v -7.4 0 7.1
v -3.2 0 3.8
v -3.1 0 3.8
v -11.8 0 3.7
v -11.7 0 3.7
v -3.2 0 3.7
v -3.1 0 3.7
v -11.8 0 3.6
v -11.7 0 3.6
v -1.1 0 2.7
v -1 0 2.7
v -1.1 0 2.6
v -1 0 2.6
v -6.5 0 2
v -6.4 0 2
v -1.2 0 2
v -1.1 0 2
v -6.5 0 1.9
v -6.4 0 1.9
v -1.2 0 1.9
v -1.1 0 1.9
v -10.9 0 0.6
v -10.8 0 0.6
v -10.9 0 0.5
v -10.8 0 0.5
v 11.1 0 0.400001
v 11.2 0 0.400001
v 11.1 0 0.3
v 11.2 0 0.3
v 0.2 0 -0.599999
v 0.299999 0 -0.599999
v 0.2 0 -0.7
v 0.299999 0 -0.7
v 2.5 0 -1.1
v 2.6 0 -1.1
v 2.5 0 -1.2
v 2.6 0 -1.2
v 5.3 0 -2.7
v 5.4 0 -2.7
v 5.3 0 -2.8
v 5.4 0 -2.8
v -6.5 0 -5.7
v -6.4 0 -5.7
v -6.5 0 -5.8
v -6.4 0 -5.8
v -0.900001 0 -7.8
v -0.8 0 -7.8
v 12.3 0 -7.8
v 12.4 0 -7.8
v -0.900001 0 -7.9
v -0.8 0 -7.9
v 12.3 0 -8
v 12.4 0 -8
v 4.3 0 -9.9
v 4.4 0 -9.9
v 4.3 0 -10
v 4.4 0 -10
v 3.9 0 -11.3
v 4 0 -11.3
v 3.9 0 -11.5
v 4 0 -11.5
v 7.7 0 -12
v 7.8 0 -12
v 7.7 0 -12.1
v 7.8 0 -12.1
v -12.8 0 -12.8
v 12.8 0 -12.8
v -12.8 0.1 12.8
v 12.8 0.1 12.8
v 12.2 0.1 12.4
v 12.3 0.1 12.4
v -12.5 0.1 12.3
v -12.4 0.1 12.3
v 12.2 0.1 12.3
v 12.3 0.1 12.3
v -12.5 0.1 12.2
v -12.4 0.1 12.2
v 4.5 0.1 11.2
v 4.6 0.1 11.2
v 4.5 0.1 11
v 4.6 0.1 11
v 10.9 0.1 10
v 11.1 0.1 10
v 10.9 0.1 9.9
v 11.1 0.1 9.9
v -1.2 0.1 8.5
v -1.1 0.1 8.5
v -1.2 0.1 8.4
v -1.1 0.1 8.4
v 4.8 0.1 8
v 5 0.1 8
v 4.8 0.1 7.9
v 5 0.1 7.9
v -7.5 0.1 7.2
v -7.4 0.1 7.2
v -7.5 0.1 7.1
v -7.4 0.1 7.1
v -3.2 0.1 3.8
v -3.1 0.1 3.8
v -11.8 0.1 3.7
v -11.7 0.1 3.7
v -3.2 0.1 3.7
v -3.1 0.1 3.7
v -11.8 0.1 3.6
v -11.7 0.1 3.6
v -1.1 0.1 2.7
v -1 0.1 2.7
v -1.1 0.1 2.6
v -1 0.1 2.6
v -6.5 0.1 2
v -6.4 0.1 2
v -1.2 0.1 2
v -1.1 0.1 2
v -6.5 0.1 1.9
v -6.4 0.1 1.9
v -1.2 0.1 1.9
v -1.1 0.1 1.9
v -10.9 0.1 0.6
v -10.8 0.1 0.6
v -10.9 0.1 0.5
v -10.8 0.1 0.5
v 11.1 0.1 0.400001
v 11.2 0.1 0.400001
v 11.1 0.1 0.3
v 11.2 0.1 0.3
v 0.2 0.1 -0.599999
v 0.299999 0.1 -0.599999
v 0.2 0.1 -0.7
v 0.299999 0.1 -0.7
v 2.5 0.1 -1.1
v 2.6 0.1 -1.1
v 2.5 0.1 -1.2
v 2.6 0.1 -1.2
v 5.3 0.1 -2.7
v 5.4 0.1 -2.7
v 5.3 0.1 -2.8
v 5.4 0.1 -2.8
v -6.5 0.1 -5.7
v -6.4 0.1 -5.7
v -6.5 0.1 -5.8
v -6.4 0.1 -5.8
v -0.900001 0.1 -7.8
v -0.8 0.1 -7.8
v 12.3 0.1 -7.8
v 12.4 0.1 -7.8
v -0.900001 0.1 -7.9
v -0.8 0.1 -7.9
v 12.3 0.1 -8
v 12.4 0.1 -8
v 4.3 0.1 -9.9
v 4.4 0.1 -9.9
v 4.3 0.1 -10
v 4.4 0.1 -10
v 3.9 0.1 -11.3
v 4 0.1 -11.3
v 3.9 0.1 -11.5
v 4 0.1 -11.5
v 7.7 0.1 -12
v 7.8 0.1 -12
v 7.7 0.1 -12.1
v 7.8 0.1 -12.1
v -12.8 0.1 -12.4
v 12.8 0.1 -12.4
v -12.8 25.6 -12.4
v 12.8 25.6 -12.4
v -12.8 25.6 -12.8
v 12.8 25.6 -12.8

# faces
f 3/2/1 2/2/1 1/2/1
f 4/2/1 2/2/1 3/2/1
f 5/2/1 2/2/1 4/2/1
f 6/2/1 2/2/1 5/2/1
f 7/2/2 8/2/2 9/2/2
f 9/2/2 8/2/2 10/2/2
f 10/2/2 8/2/2 11/2/2
f 11/2/2 8/2/2 12/2/2
f 15/2/3 14/2/3 13/2/3
f 16/2/3 14/2/3 15/2/3
f 19/2/3 18/2/3 17/2/3
f 20/2/3 18/2/3 19/2/3
f 21/2/3 19/2/3 17/2/3
f 21/1/3 20/1/3 19/1/3
f 22/2/3 18/2/3 20/2/3
f 22/1/3 20/1/3 21/1/3
f 23/2/3 18/2/3 22/2/3
f 24/2/3 18/2/3 23/2/3
f 25/2/3 22/2/3 21/2/3
f 25/2/3 23/2/3 22/2/3
f 25/1/3 24/1/3 23/1/3
f 26/2/3 18/2/3 24/2/3
f 26/1/3 24/1/3 25/1/3
f 27/2/3 26/2/3 25/2/3
f 27/2/3 18/2/3 26/2/3
f 28/2/3 18/2/3 27/2/3
f 29/2/3 27/2/3 25/2/3
f 29/1/3 28/1/3 27/1/3
f 30/2/3 18/2/3 28/2/3
f 30/1/3 28/1/3 29/1/3
f 31/2/3 30/2/3 29/2/3
f 31/2/3 18/2/3 30/2/3
f 32/2/3 18/2/3 31/2/3
f 33/2/3 31/2/3 29/2/3
f 33/1/3 32/1/3 31/1/3
f 34/2/3 18/2/3 32/2/3
f 34/1/3 32/1/3 33/1/3
f 35/2/3 21/2/3 17/2/3
f 35/2/3 25/2/3 21/2/3
f 35/2/3 34/2/3 33/2/3
f 35/2/3 33/2/3 29/2/3
f 35/2/3 29/2/3 25/2/3
f 36/2/3 34/2/3 35/2/3
f 37/2/3 35/2/3 17/2/3
f 37/1/3 36/1/3 35/1/3
f 38/2/3 34/2/3 36/2/3
f 38/1/3 36/1/3 37/1/3
f 39/2/3 38/2/3 37/2/3
f 39/2/3 34/2/3 38/2/3
f 40/2/3 34/2/3 39/2/3
f 41/2/3 39/2/3 37/2/3
f 41/1/3 40/1/3 39/1/3
f 42/2/3 34/2/3 40/2/3
f 42/1/3 40/1/3 41/1/3
f 43/2/3 41/2/3 37/2/3
f 43/2/3 42/2/3 41/2/3
f 44/2/3 42/2/3 43/2/3
f 45/2/3 43/2/3 37/2/3
f 45/1/3 44/1/3 43/1/3
f 46/2/3 42/2/3 44/2/3
f 46/1/3 44/1/3 45/1/3
f 47/2/3 34/2/3 42/2/3
f 47/2/3 42/2/3 46/2/3
f 47/2/3 46/2/3 45/2/3
f 48/2/3 34/2/3 47/2/3
f 49/2/3 47/2/3 45/2/3
f 49/1/3 48/1/3 47/1/3
f 50/2/3 34/2/3 48/2/3
f 50/1/3 48/1/3 49/1/3
f 51/2/3 45/2/3 37/2/3
f 51/2/3 49/2/3 45/2/3
f 51/2/3 50/2/3 49/2/3
f 52/2/3 50/2/3 51/2/3
f 53/2/3 51/2/3 37/2/3
f 53/1/3 52/1/3 51/1/3
f 54/2/3 50/2/3 52/2/3
f 54/1/3 52/1/3 53/1/3
f 55/2/3 53/2/3 37/2/3
f 55/2/3 54/2/3 53/2/3
f 56/2/3 54/2/3 55/2/3
f 57/2/3 55/2/3 37/2/3
f 57/1/3 56/1/3 55/1/3
f 58/2/3 54/2/3 56/2/3
f 58/1/3 56/1/3 57/1/3
f 59/2/3 50/2/3 54/2/3
f 59/2/3 54/2/3 58/2/3
f 59/2/3 58/2/3 57/2/3
f 60/2/3 50/2/3 59/2/3
f 61/2/3 59/2/3 57/2/3
f 61/1/3 60/1/3 59/1/3
f 62/2/3 50/2/3 60/2/3
f 62/1/3 60/1/3 61/1/3
f 63/2/3 62/2/3 61/2/3
f 63/2/3 50/2/3 62/2/3
f 64/2/3 50/2/3 63/2/3
f 65/2/3 63/2/3 61/2/3
f 65/1/3 64/1/3 63/1/3
f 66/2/3 50/2/3 64/2/3
f 66/1/3 64/1/3 65/1/3
f 67/2/3 34/2/3 50/2/3
f 67/2/3 50/2/3 66/2/3
f 67/2/3 66/2/3 65/2/3
f 68/2/3 34/2/3 67/2/3
f 69/2/3 67/2/3 65/2/3
f 69/1/3 68/1/3 67/1/3
f 70/2/3 34/2/3 68/2/3
f 70/1/3 68/1/3 69/1/3
f 71/2/3 65/2/3 61/2/3
f 71/2/3 61/2/3 57/2/3
f 71/2/3 70/2/3 69/2/3
f 71/2/3 69/2/3 65/2/3
f 72/2/3 70/2/3 71/2/3
f 73/2/3 71/2/3 57/2/3
f 73/1/3 72/1/3 71/1/3
f 74/2/3 70/2/3 72/2/3
f 74/1/3 72/1/3 73/1/3
f 75/2/3 73/2/3 57/2/3
f 75/2/3 74/2/3 73/2/3
f 76/2/3 74/2/3 75/2/3
f 77/2/3 75/2/3 57/2/3
f 77/1/3 76/1/3 75/1/3
f 78/2/3 74/2/3 76/2/3
f 78/1/3 76/1/3 77/1/3
f 79/2/3 70/2/3 74/2/3
f 79/2/3 74/2/3 78/2/3
f 79/2/3 78/2/3 77/2/3
f 80/2/3 70/2/3 79/2/3
f 81/2/3 79/2/3 77/2/3
f 81/1/3 80/1/3 79/1/3
f 82/2/3 70/2/3 80/2/3
f 82/1/3 80/1/3 81/1/3
f 83/2/3 18/2/3 34/2/3
f 83/2/3 70/2/3 82/2/3
f 83/2/3 82/2/3 81/2/3
f 83/2/3 34/2/3 70/2/3
f 84/2/3 18/2/3 83/2/3
f 85/2/3 83/2/3 81/2/3
f 85/1/3 84/1/3 83/1/3
f 86/2/3 18/2/3 84/2/3
f 86/1/3 84/1/3 85/1/3
f 87/2/3 81/2/3 77/2/3
f 87/2/3 85/2/3 81/2/3
f 87/2/3 86/2/3 85/2/3
f 88/2/3 86/2/3 87/2/3
f 89/2/3 87/2/3 77/2/3
f 89/1/3 88/1/3 87/1/3
f 90/2/3 86/2/3 88/2/3
f 90/1/3 88/1/3 89/1/3
f 91/2/3 89/2/3 77/2/3
f 91/2/3 90/2/3 89/2/3
f 92/2/3 90/2/3 91/2/3
f 93/2/3 86/2/3 90/2/3
f 93/2/3 90/2/3 92/2/3
f 94/2/3 86/2/3 93/2/3
f 95/1/3 92/1/3 91/1/3
f 95/2/3 91/2/3 77/2/3
f 96/2/3 93/2/3 92/2/3
f 96/1/3 92/1/3 95/1/3
f 97/1/3 94/1/3 93/1/3
f 97/2/3 93/2/3 96/2/3
f 98/2/3 86/2/3 94/2/3
f 98/1/3 94/1/3 97/1/3
f 99/2/3 77/2/3 57/2/3
f 99/2/3 57/2/3 37/2/3
f 99/2/3 98/2/3 97/2/3
f 99/2/3 95/2/3 77/2/3
f 99/2/3 96/2/3 95/2/3
f 99/2/3 97/2/3 96/2/3
f 100/2/3 98/2/3 99/2/3
f 101/2/3 99/2/3 37/2/3
f 101/1/3 100/1/3 99/1/3
f 102/2/3 98/2/3 100/2/3
f 102/1/3 100/1/3 101/1/3
f 103/2/3 86/2/3 98/2/3
f 103/2/3 98/2/3 102/2/3
f 103/2/3 102/2/3 101/2/3
f 104/2/3 86/2/3 103/2/3
f 105/2/3 103/2/3 101/2/3
f 105/1/3 104/1/3 103/1/3
f 106/2/3 86/2/3 104/2/3
f 106/1/3 104/1/3 105/1/3
f 107/2/3 105/2/3 101/2/3
f 107/2/3 106/2/3 105/2/3
f 108/2/3 106/2/3 107/2/3
f 109/2/3 107/2/3 101/2/3
f 109/1/3 108/1/3 107/1/3
f 110/2/3 106/2/3 108/2/3
f 110/1/3 108/1/3 109/1/3
f 111/2/3 109/2/3 101/2/3
f 111/2/3 110/2/3 109/2/3
f 112/2/3 110/2/3 111/2/3
f 113/2/3 111/2/3 101/2/3
f 113/1/3 112/1/3 111/1/3
f 114/2/3 110/2/3 112/2/3
f 114/1/3 112/1/3 113/1/3
f 115/2/3 114/2/3 113/2/3
f 115/2/3 110/2/3 114/2/3
f 116/2/3 110/2/3 115/2/3
f 117/2/3 115/2/3 113/2/3
f 117/1/3 116/1/3 115/1/3
f 118/2/3 110/2/3 116/2/3
f 118/1/3 116/1/3 117/1/3
f 119/2/3 106/2/3 110/2/3
f 119/2/3 110/2/3 118/2/3
f 119/2/3 118/2/3 117/2/3
f 120/2/3 106/2/3 119/2/3
f 121/2/3 119/2/3 117/2/3
f 121/1/3 120/1/3 119/1/3
f 122/2/3 106/2/3 120/2/3
f 122/1/3 120/1/3 121/1/3
f 123/2/3 37/2/3 17/2/3
f 123/2/3 101/2/3 37/2/3
f 123/2/3 122/2/3 121/2/3
f 123/2/3 121/2/3 117/2/3
f 123/2/3 113/2/3 101/2/3
f 123/2/3 117/2/3 113/2/3
f 124/2/3 18/2/3 86/2/3
f 124/2/3 122/2/3 123/2/3
f 124/2/3 106/2/3 122/2/3
f 124/2/3 86/2/3 106/2/3
f 125/2/4 126/2/4 127/2/4
f 127/2/4 126/2/4 128/2/4
f 131/2/5 130/2/5 129/2/5
f 132/2/5 130/2/5 131/2/5
f 133/2/5 131/2/5 129/2/5
f 134/2/5 131/2/5 133/2/5
f 135/1/5 132/1/5 131/1/5
f 135/2/5 131/2/5 134/2/5
f 136/2/5 130/2/5 132/2/5
f 136/1/5 132/1/5 135/1/5
f 137/1/5 134/1/5 133/1/5
f 137/2/5 133/2/5 129/2/5
f 138/2/5 135/2/5 134/2/5
f 138/1/5 134/1/5 137/1/5
f 138/2/5 136/2/5 135/2/5
f 139/2/5 138/2/5 137/2/5
f 139/2/5 136/2/5 138/2/5
f 140/2/5 136/2/5 139/2/5
f 141/2/5 139/2/5 137/2/5
f 141/1/5 140/1/5 139/1/5
f 142/2/5 136/2/5 140/2/5
f 142/1/5 140/1/5 141/1/5
f 143/2/5 142/2/5 141/2/5
f 143/2/5 136/2/5 142/2/5
f 144/2/5 136/2/5 143/2/5
f 145/2/5 143/2/5 141/2/5
f 145/1/5 144/1/5 143/1/5
f 146/2/5 136/2/5 144/2/5
f 146/1/5 144/1/5 145/1/5
f 147/2/5 141/2/5 137/2/5
f 147/2/5 145/2/5 141/2/5
f 147/2/5 146/2/5 145/2/5
f 148/2/5 146/2/5 147/2/5
f 149/2/5 147/2/5 137/2/5
f 149/1/5 148/1/5 147/1/5
f 150/2/5 146/2/5 148/2/5
f 150/1/5 148/1/5 149/1/5
f 151/2/5 150/2/5 149/2/5
f 151/2/5 146/2/5 150/2/5
f 152/2/5 146/2/5 151/2/5
f 153/2/5 151/2/5 149/2/5
f 153/1/5 152/1/5 151/1/5
f 154/2/5 146/2/5 152/2/5
f 154/1/5 152/1/5 153/1/5
f 155/2/5 149/2/5 137/2/5
f 155/2/5 153/2/5 149/2/5
f 155/2/5 154/2/5 153/2/5
f 156/2/5 154/2/5 155/2/5
f 157/2/5 155/2/5 137/2/5
f 157/1/5 156/1/5 155/1/5
f 158/2/5 154/2/5 156/2/5
f 158/1/5 156/1/5 157/1/5
f 159/2/5 158/2/5 157/2/5
f 159/2/5 154/2/5 158/2/5
f 160/2/5 154/2/5 159/2/5
f 161/2/5 157/2/5 137/2/5
f 161/2/5 159/2/5 157/2/5
f 162/2/5 159/2/5 161/2/5
f 163/1/5 160/1/5 159/1/5
f 163/2/5 159/2/5 162/2/5
f 164/2/5 154/2/5 160/2/5
f 164/1/5 160/1/5 163/1/5
f 165/1/5 162/1/5 161/1/5
f 165/2/5 161/2/5 137/2/5
f 166/2/5 163/2/5 162/2/5
f 166/1/5 162/1/5 165/1/5
f 166/2/5 164/2/5 163/2/5
f 167/2/5 154/2/5 164/2/5
f 167/2/5 164/2/5 166/2/5
f 167/2/5 166/2/5 165/2/5
f 168/2/5 154/2/5 167/2/5
f 169/2/5 167/2/5 165/2/5
f 169/1/5 168/1/5 167/1/5
f 170/2/5 154/2/5 168/2/5
f 170/1/5 168/1/5 169/1/5
f 171/2/5 169/2/5 165/2/5
f 171/2/5 170/2/5 169/2/5
f 172/2/5 170/2/5 171/2/5
f 173/2/5 170/2/5 172/2/5
f 174/2/5 170/2/5 173/2/5
f 175/2/5 171/2/5 165/2/5
f 175/1/5 172/1/5 171/1/5
f 176/2/5 173/2/5 172/2/5
f 176/1/5 172/1/5 175/1/5
f 177/1/5 174/1/5 173/1/5
f 177/2/5 173/2/5 176/2/5
f 178/2/5 170/2/5 174/2/5
f 178/1/5 174/1/5 177/1/5
f 179/2/5 177/2/5 176/2/5
f 179/2/5 176/2/5 175/2/5
f 179/2/5 178/2/5 177/2/5
f 179/2/5 175/2/5 165/2/5
f 180/2/5 178/2/5 179/2/5
f 181/2/5 179/2/5 165/2/5
f 181/1/5 180/1/5 179/1/5
f 182/2/5 178/2/5 180/2/5
f 182/1/5 180/1/5 181/1/5
f 183/2/5 136/2/5 146/2/5
f 183/2/5 178/2/5 182/2/5
f 183/2/5 182/2/5 181/2/5
f 183/2/5 146/2/5 154/2/5
f 183/2/5 170/2/5 178/2/5
f 183/2/5 154/2/5 170/2/5
f 184/2/5 136/2/5 183/2/5
f 185/2/5 183/2/5 181/2/5
f 185/1/5 184/1/5 183/1/5
f 186/2/5 136/2/5 184/2/5
f 186/1/5 184/1/5 185/1/5
f 187/2/5 185/2/5 181/2/5
f 187/2/5 186/2/5 185/2/5
f 188/2/5 186/2/5 187/2/5
f 189/2/5 187/2/5 181/2/5
f 189/1/5 188/1/5 187/1/5
f 190/2/5 186/2/5 188/2/5
f 190/1/5 188/1/5 189/1/5
f 191/2/5 190/2/5 189/2/5
f 191/2/5 186/2/5 190/2/5
f 192/2/5 186/2/5 191/2/5
f 193/2/5 191/2/5 189/2/5
f 193/1/5 192/1/5 191/1/5
f 194/2/5 186/2/5 192/2/5
f 194/1/5 192/1/5 193/1/5
f 195/2/5 194/2/5 193/2/5
f 195/2/5 186/2/5 194/2/5
f 196/2/5 186/2/5 195/2/5
f 197/2/5 195/2/5 193/2/5
f 197/1/5 196/1/5 195/1/5
f 198/2/5 186/2/5 196/2/5
f 198/1/5 196/1/5 197/1/5
f 199/2/5 189/2/5 181/2/5
f 199/2/5 193/2/5 189/2/5
f 199/2/5 198/2/5 197/2/5
f 199/2/5 197/2/5 193/2/5
f 200/2/5 198/2/5 199/2/5
f 201/2/5 199/2/5 181/2/5
f 201/1/5 200/1/5 199/1/5
f 202/2/5 198/2/5 200/2/5
f 202/1/5 200/1/5 201/1/5
f 203/2/5 202/2/5 201/2/5
f 203/2/5 198/2/5 202/2/5
f 204/2/5 198/2/5 203/2/5
f 205/2/5 130/2/5 136/2/5
f 205/2/5 198/2/5 204/2/5
f 205/2/5 136/2/5 186/2/5
f 205/2/5 186/2/5 198/2/5
f 206/2/5 130/2/5 205/2/5
f 207/1/5 204/1/5 203/1/5
f 207/2/5 203/2/5 201/2/5
f 208/2/5 205/2/5 204/2/5
f 208/1/5 204/1/5 207/1/5
f 209/1/5 206/1/5 205/1/5
f 209/2/5 205/2/5 208/2/5
f 209/2/5 208/2/5 207/2/5
f 210/2/5 130/2/5 206/2/5
f 210/1/5 206/1/5 209/1/5
f 211/2/5 209/2/5 207/2/5
f 211/2/5 210/2/5 209/2/5
f 212/2/5 210/2/5 211/2/5
f 213/2/5 211/2/5 207/2/5
f 213/1/5 212/1/5 211/1/5
f 214/2/5 210/2/5 212/2/5
f 214/1/5 212/1/5 213/1/5
f 215/2/5 213/2/5 207/2/5
f 215/2/5 214/2/5 213/2/5
f 216/2/5 214/2/5 215/2/5
f 217/2/5 215/2/5 207/2/5
f 217/1/5 216/1/5 215/1/5
f 218/2/5 214/2/5 216/2/5
f 218/1/5 216/1/5 217/1/5
f 219/2/5 210/2/5 214/2/5
f 219/2/5 214/2/5 218/2/5
f 219/2/5 218/2/5 217/2/5
f 220/2/5 210/2/5 219/2/5
f 221/2/5 219/2/5 217/2/5
f 221/1/5 220/1/5 219/1/5
f 222/2/5 210/2/5 220/2/5
f 222/1/5 220/1/5 221/1/5
f 223/2/5 137/2/5 129/2/5
f 223/2/5 181/2/5 165/2/5
f 223/2/5 222/2/5 221/2/5
f 223/2/5 221/2/5 217/2/5
f 223/2/5 217/2/5 207/2/5
f 223/2/5 201/2/5 181/2/5
f 223/2/5 207/2/5 201/2/5
f 223/2/5 165/2/5 137/2/5
f 224/2/5 210/2/5 222/2/5
f 224/2/5 222/2/5 223/2/5
f 224/2/5 130/2/5 210/2/5
f 225/2/6 226/2/6 227/2/6
f 227/2/6 226/2/6 228/2/6
f 225/2/6 227/2/6 229/2/6
f 229/2/6 227/2/6 230/2/6
f 227/1/6 228/1/6 231/1/6
f 230/2/6 227/2/6 231/2/6
f 228/2/6 226/2/6 232/2/6
f 231/1/6 228/1/6 232/1/6
f 229/1/6 230/1/6 233/1/6
f 225/2/6 229/2/6 233/2/6
f 230/2/6 231/2/6 234/2/6
f 233/1/6 230/1/6 234/1/6
f 231/2/6 232/2/6 234/2/6
f 233/2/6 234/2/6 235/2/6
f 234/2/6 232/2/6 235/2/6
f 235/2/6 232/2/6 236/2/6
f 233/2/6 235/2/6 237/2/6
f 235/1/6 236/1/6 237/1/6
f 236/2/6 232/2/6 238/2/6
f 237/1/6 236/1/6 238/1/6
f 237/2/6 238/2/6 239/2/6
f 238/2/6 232/2/6 239/2/6
f 239/2/6 232/2/6 240/2/6
f 237/2/6 239/2/6 241/2/6
f 239/1/6 240/1/6 241/1/6
f 240/2/6 232/2/6 242/2/6
f 241/1/6 240/1/6 242/1/6
f 233/2/6 237/2/6 243/2/6
f 237/2/6 241/2/6 243/2/6
f 241/2/6 242/2/6 243/2/6
f 243/2/6 242/2/6 244/2/6
f 233/2/6 243/2/6 245/2/6
f 243/1/6 244/1/6 245/1/6
f 244/2/6 242/2/6 246/2/6
f 245/1/6 244/1/6 246/1/6
f 245/2/6 246/2/6 247/2/6
f 246/2/6 242/2/6 247/2/6
f 247/2/6 242/2/6 248/2/6
f 245/2/6 247/2/6 249/2/6
f 247/1/6 248/1/6 249/1/6
f 248/2/6 242/2/6 250/2/6
f 249/1/6 248/1/6 250/1/6
f 233/2/6 245/2/6 251/2/6
f 245/2/6 249/2/6 251/2/6
f 249/2/6 250/2/6 251/2/6
f 251/2/6 250/2/6 252/2/6
f 233/2/6 251/2/6 253/2/6
f 251/1/6 252/1/6 253/1/6
f 252/2/6 250/2/6 254/2/6
f 253/1/6 252/1/6 254/1/6
f 253/2/6 254/2/6 255/2/6
f 254/2/6 250/2/6 255/2/6
f 255/2/6 250/2/6 256/2/6
f 233/2/6 253/2/6 257/2/6
f 253/2/6 255/2/6 257/2/6
f 257/2/6 255/2/6 258/2/6
f 255/1/6 256/1/6 259/1/6
f 258/2/6 255/2/6 259/2/6
f 256/2/6 250/2/6 260/2/6
f 259/1/6 256/1/6 260/1/6
f 257/1/6 258/1/6 261/1/6
f 233/2/6 257/2/6 261/2/6
f 258/2/6 259/2/6 262/2/6
f 261/1/6 258/1/6 262/1/6
f 259/2/6 260/2/6 262/2/6
f 260/2/6 250/2/6 263/2/6
f 262/2/6 260/2/6 263/2/6
f 261/2/6 262/2/6 263/2/6
f 263/2/6 250/2/6 264/2/6
f 261/2/6 263/2/6 265/2/6
f 263/1/6 264/1/6 265/1/6
f 264/2/6 250/2/6 266/2/6
f 265/1/6 264/1/6 266/1/6
f 261/2/6 265/2/6 267/2/6
f 265/2/6 266/2/6 267/2/6
f 267/2/6 266/2/6 268/2/6
f 268/2/6 266/2/6 269/2/6
f 269/2/6 266/2/6 270/2/6
f 261/2/6 267/2/6 271/2/6
f 267/1/6 268/1/6 271/1/6
f 268/2/6 269/2/6 272/2/6
f 271/1/6 268/1/6 272/1/6
f 269/1/6 270/1/6 273/1/6
f 272/2/6 269/2/6 273/2/6
f 270/2/6 266/2/6 274/2/6
f 273/1/6 270/1/6 274/1/6
f 272/2/6 273/2/6 275/2/6
f 271/2/6 272/2/6 275/2/6
f 273/2/6 274/2/6 275/2/6
f 261/2/6 271/2/6 275/2/6
f 275/2/6 274/2/6 276/2/6
f 261/2/6 275/2/6 277/2/6
f 275/1/6 276/1/6 277/1/6
f 276/2/6 274/2/6 278/2/6
f 277/1/6 276/1/6 278/1/6
f 242/2/6 232/2/6 279/2/6
f 278/2/6 274/2/6 279/2/6
f 277/2/6 278/2/6 279/2/6
f 250/2/6 242/2/6 279/2/6
f 274/2/6 266/2/6 279/2/6
f 266/2/6 250/2/6 279/2/6
f 279/2/6 232/2/6 280/2/6
f 277/2/6 279/2/6 281/2/6
f 279/1/6 280/1/6 281/1/6
f 280/2/6 232/2/6 282/2/6
f 281/1/6 280/1/6 282/1/6
f 277/2/6 281/2/6 283/2/6
f 281/2/6 282/2/6 283/2/6
f 283/2/6 282/2/6 284/2/6
f 277/2/6 283/2/6 285/2/6
f 283/1/6 284/1/6 285/1/6
f 284/2/6 282/2/6 286/2/6
f 285/1/6 284/1/6 286/1/6
f 285/2/6 286/2/6 287/2/6
f 286/2/6 282/2/6 287/2/6
f 287/2/6 282/2/6 288/2/6
f 285/2/6 287/2/6 289/2/6
f 287/1/6 288/1/6 289/1/6
f 288/2/6 282/2/6 290/2/6
f 289/1/6 288/1/6 290/1/6
f 289/2/6 290/2/6 291/2/6
f 290/2/6 282/2/6 291/2/6
f 291/2/6 282/2/6 292/2/6
f 289/2/6 291/2/6 293/2/6
f 291/1/6 292/1/6 293/1/6
f 292/2/6 282/2/6 294/2/6
f 293/1/6 292/1/6 294/1/6
f 277/2/6 285/2/6 295/2/6
f 285/2/6 289/2/6 295/2/6
f 293/2/6 294/2/6 295/2/6
f 289/2/6 293/2/6 295/2/6
f 295/2/6 294/2/6 296/2/6
f 277/2/6 295/2/6 297/2/6
f 295/1/6 296/1/6 297/1/6
f 296/2/6 294/2/6 298/2/6
f 297/1/6 296/1/6 298/1/6
f 297/2/6 298/2/6 299/2/6
f 298/2/6 294/2/6 299/2/6
f 299/2/6 294/2/6 300/2/6
f 232/2/6 226/2/6 301/2/6
f 300/2/6 294/2/6 301/2/6
f 282/2/6 232/2/6 301/2/6
f 294/2/6 282/2/6 301/2/6
f 301/2/6 226/2/6 302/2/6
f 299/1/6 300/1/6 303/1/6
f 297/2/6 299/2/6 303/2/6
f 300/2/6 301/2/6 304/2/6
f 303/1/6 300/1/6 304/1/6
f 301/1/6 302/1/6 305/1/6
f 304/2/6 301/2/6 305/2/6
f 303/2/6 304/2/6 305/2/6
f 302/2/6 226/2/6 306/2/6
f 305/1/6 302/1/6 306/1/6
f 303/2/6 305/2/6 307/2/6
f 305/2/6 306/2/6 307/2/6
f 307/2/6 306/2/6 308/2/6
f 303/2/6 307/2/6 309/2/6
f 307/1/6 308/1/6 309/1/6
f 308/2/6 306/2/6 310/2/6
f 309/1/6 308/1/6 310/1/6
f 303/2/6 309/2/6 311/2/6
f 309/2/6 310/2/6 311/2/6
f 311/2/6 310/2/6 312/2/6
f 303/2/6 311/2/6 313/2/6
f 311/1/6 312/1/6 313/1/6
f 312/2/6 310/2/6 314/2/6
f 313/1/6 312/1/6 314/1/6
f 310/2/6 306/2/6 315/2/6
f 314/2/6 310/2/6 315/2/6
f 313/2/6 314/2/6 315/2/6
f 315/2/6 306/2/6 316/2/6
f 313/2/6 315/2/6 317/2/6
f 315/1/6 316/1/6 317/1/6
f 316/2/6 306/2/6 318/2/6
f 317/1/6 316/1/6 318/1/6
f 225/2/6 233/2/6 319/2/6
f 261/2/6 277/2/6 319/2/6
f 317/2/6 318/2/6 319/2/6
f 313/2/6 317/2/6 319/2/6
f 303/2/6 313/2/6 319/2/6
f 277/2/6 297/2/6 319/2/6
f 297/2/6 303/2/6 319/2/6
f 233/2/6 261/2/6 319/2/6
f 318/2/6 306/2/6 320/2/6
f 319/2/6 318/2/6 320/2/6
f 306/2/6 226/2/6 320/2/6
f 321/2/6 322/2/6 323/2/6
f 323/2/6 322/2/6 324/2/6
